HIERARCHY
ROOT Hips
{
	OFFSET -0.001795 -0.223333 0.028219
	CHANNELS 6 Xposition Yposition Zposition Zrotation Yrotation Xrotation 
	JOINT LeftUpLeg
	{
		OFFSET 0.069520 -0.091406 -0.006815
		CHANNELS 3 Zrotation Yrotation Xrotation
		JOINT LeftLeg
		{
			OFFSET 0.034277 -0.375199 -0.004496
			CHANNELS 3 Zrotation Yrotation Xrotation
			JOINT LeftFoot
			{
				OFFSET -0.013596 -0.397961 -0.043693
				CHANNELS 3 Zrotation Yrotation Xrotation
				JOINT LeftToe
				{
					OFFSET 0.026358 -0.055791 0.119288
					CHANNELS 3 Zrotation Yrotation Xrotation
					End Site
					{
						OFFSET 0.000000 0.000000 0.000000
					}
				}
			}
		}
	}
	JOINT RightUpLeg
	{
		OFFSET -0.067670 -0.090522 -0.004320
		CHANNELS 3 Zrotation Yrotation Xrotation
		JOINT RightLeg
		{
			OFFSET -0.038290 -0.382569 -0.008850
			CHANNELS 3 Zrotation Yrotation Xrotation
			JOINT RightFoot
			{
				OFFSET 0.015774 -0.398415 -0.042312
				CHANNELS 3 Zrotation Yrotation Xrotation
				JOINT RightToe
				{
					OFFSET -0.025372 -0.048144 0.123348
					CHANNELS 3 Zrotation Yrotation Xrotation
					End Site
					{
						OFFSET 0.000000 0.000000 0.000000
					}
				}
			}
		}
	}
	JOINT Spine
	{
		OFFSET -0.002533 0.108963 -0.026696
		CHANNELS 3 Zrotation Yrotation Xrotation
		JOINT Spine1
		{
			OFFSET 0.005487 0.135180 0.001092
			CHANNELS 3 Zrotation Yrotation Xrotation
			JOINT Spine2
			{
				OFFSET 0.001457 0.052922 0.025425
				CHANNELS 3 Zrotation Yrotation Xrotation
				JOINT Neck
				{
					OFFSET -0.002778 0.213870 -0.042857
					CHANNELS 3 Zrotation Yrotation Xrotation
					JOINT Head
					{
						OFFSET 0.005152 0.064970 0.051349
						CHANNELS 3 Zrotation Yrotation Xrotation
						End Site
						{
							OFFSET 0.000000 0.000000 0.000000
						}
					}
				}
				JOINT LeftShoulder
				{
					OFFSET 0.078845 0.121749 -0.034090
					CHANNELS 3 Zrotation Yrotation Xrotation
					JOINT LeftArm
					{
						OFFSET 0.090977 0.030469 -0.008868
						CHANNELS 3 Zrotation Yrotation Xrotation
						JOINT LeftForeArm
						{
							OFFSET 0.259612 -0.012772 -0.027456
							CHANNELS 3 Zrotation Yrotation Xrotation
							JOINT LeftHand
							{
								OFFSET 0.249234 0.008986 -0.001171
								CHANNELS 3 Zrotation Yrotation Xrotation
								End Site
								{
									OFFSET 0.000000 0.000000 0.000000
								}
							}
						}
					}
				}
				JOINT RightShoulder
				{
					OFFSET -0.081759 0.118833 -0.038615
					CHANNELS 3 Zrotation Yrotation Xrotation
					JOINT RightArm
					{
						OFFSET -0.096012 0.032551 -0.009143
						CHANNELS 3 Zrotation Yrotation Xrotation
						JOINT RightForeArm
						{
							OFFSET -0.253742 -0.013329 -0.021401
							CHANNELS 3 Zrotation Yrotation Xrotation
							JOINT RightHand
							{
								OFFSET -0.255298 0.007772 -0.005559
								CHANNELS 3 Zrotation Yrotation Xrotation
								End Site
								{
									OFFSET 0.000000 0.000000 0.000000
								}
							}
						}
					}
				}
			}
		}
	}
}
MOTION
Frames: 5
Frame Time: 0.050000
0.000000 0.879193 0.000000 2.033671 5.797516 9.797860 17.199195 0.817021 -40.477134 -24.592875 8.318547 33.354881 14.565462 27.183632 18.068154 0.000000 0.000000 0.000000 -14.123158 -1.786360 -42.461572 14.267778 -7.231744 44.877130 -8.180613 -19.782951 8.545199 0.000000 0.000000 0.000000 5.321782 -6.822122 53.021515 -5.895620 1.990538 -25.201280 -3.009612 1.136100 22.476219 13.860852 -8.712209 -13.551088 0.000000 0.000000 0.000000 -13.074484 -36.128346 16.463380 -28.780054 -41.691355 4.295751 17.482782 -15.480572 -1.717075 0.000000 0.000000 0.000000 18.192503 24.458862 13.422726 26.727769 51.752043 6.105940 -16.289030 7.529227 -0.380404 0.000000 0.000000 0.000000 
-0.000110 0.860750 -0.002701 1.960414 6.067955 10.967280 20.226404 1.878699 -44.430274 -28.320081 10.515466 35.815572 14.313624 26.820910 19.173356 0.000000 0.000000 0.000000 -15.495595 -2.835865 -47.647696 16.296402 -9.448178 50.611700 -8.877174 -21.186901 7.833115 0.000000 0.000000 0.000000 4.832758 -6.974139 54.921088 -5.524656 1.868691 -26.250269 -2.909455 2.273818 23.492114 14.504936 -8.317264 -16.258243 0.000000 0.000000 0.000000 -11.688364 -37.849322 16.743573 -26.306787 -43.617142 3.930188 18.263538 -14.012676 -1.647191 0.000000 0.000000 0.000000 17.682860 24.796569 13.920181 24.012703 54.849760 5.577174 -18.869960 6.028034 -0.240687 0.000000 0.000000 0.000000 
-0.000217 0.844834 -0.004606 2.248954 6.069677 10.401339 21.138891 2.326811 -46.363541 -30.661229 12.666330 39.878163 14.451178 27.421910 14.935004 0.000000 0.000000 0.000000 -16.658628 -3.520106 -49.110906 17.267206 -10.852228 54.633339 -8.618739 -20.894382 2.718424 0.000000 0.000000 0.000000 4.063831 -7.107611 58.670698 -4.883261 1.741688 -27.059761 -3.531356 2.230160 22.904184 13.398163 -8.566275 -12.529041 0.000000 0.000000 0.000000 -10.686848 -38.072039 16.553778 -23.846632 -44.614343 3.403454 17.765522 -11.971012 -1.356433 0.000000 0.000000 0.000000 20.153777 26.609441 15.500398 16.717849 53.376229 2.148483 -17.384156 5.781751 -0.242184 0.000000 0.000000 0.000000 
-0.000602 0.828939 -0.005965 1.979627 5.865929 10.623954 23.832029 3.553311 -48.324853 -34.092833 14.936365 41.080021 14.484090 27.216724 16.621557 0.000000 0.000000 0.000000 -16.968413 -4.029492 -52.901353 17.562825 -12.012881 59.804571 -8.575420 -20.876548 1.208198 0.000000 0.000000 0.000000 4.108180 -7.674043 62.300027 -6.077633 1.959823 -27.250506 -3.631428 1.746502 22.104448 12.620875 -8.125604 -11.932436 0.000000 0.000000 0.000000 -8.321306 -39.025298 16.423678 -21.679128 -45.344110 2.951404 19.423891 -11.342095 -1.440708 0.000000 0.000000 0.000000 19.047846 27.237452 15.323167 12.852787 54.428143 0.710451 -17.420289 6.018181 -0.289423 0.000000 0.000000 0.000000 
-0.000931 0.809714 -0.007103 1.965535 5.844421 10.591315 25.352993 4.512718 -51.580090 -36.394387 17.523300 44.686887 19.252918 32.459778 21.297206 0.000000 0.000000 0.000000 -17.693875 -4.757327 -55.792963 18.352957 -13.301689 63.216102 -8.910688 -21.736313 -1.082526 0.000000 0.000000 0.000000 2.809620 -7.358445 65.823244 -5.942008 1.906156 -28.474776 -3.216611 2.378992 22.078803 11.466192 -7.307276 -11.468930 0.000000 0.000000 0.000000 -6.820913 -40.318357 16.447222 -18.703236 -46.348595 2.136270 19.864984 -9.510164 -1.241142 0.000000 0.000000 0.000000 18.256662 28.562181 15.975123 8.318031 54.705157 -1.176606 -17.160493 3.903752 -0.053700 0.000000 0.000000 0.000000 
